<svg width="13" height="13" viewBox="0 0 13 13" fill="none" xmlns="http://www.w3.org/2000/svg">
<mask id="path-1-inside-1_39009_292" fill="white">
<path fill-rule="evenodd" clip-rule="evenodd" d="M0.162109 6.1499L6.16211 0.649902L12.1621 6.1499V12.3499H0.162109V6.1499ZM1.16211 6.5499V11.3499H11.1621V6.5499L6.16211 2.0499L1.16211 6.5499ZM5.16211 10.3499H4.16211V6.84985H8.16211V10.3499H7.16211V7.84985H5.16211V10.3499Z"/>
</mask>
<path fill-rule="evenodd" clip-rule="evenodd" d="M0.162109 6.1499L6.16211 0.649902L12.1621 6.1499V12.3499H0.162109V6.1499ZM1.16211 6.5499V11.3499H11.1621V6.5499L6.16211 2.0499L1.16211 6.5499ZM5.16211 10.3499H4.16211V6.84985H8.16211V10.3499H7.16211V7.84985H5.16211V10.3499Z" fill="white"/>
<path d="M6.16211 0.649902L6.83783 -0.0872518L6.16211 -0.706666L5.48638 -0.0872518L6.16211 0.649902ZM0.162109 6.1499L-0.513615 5.41275L-0.837891 5.71V6.1499H0.162109ZM12.1621 6.1499H13.1621V5.71L12.8378 5.41275L12.1621 6.1499ZM12.1621 12.3499V13.3499H13.1621V12.3499H12.1621ZM0.162109 12.3499H-0.837891V13.3499H0.162109V12.3499ZM1.16211 11.3499H0.162109V12.3499H1.16211V11.3499ZM1.16211 6.5499L0.493145 5.80661L0.162109 6.10454V6.5499H1.16211ZM11.1621 11.3499V12.3499H12.1621V11.3499H11.1621ZM11.1621 6.5499H12.1621V6.10454L11.8311 5.80661L11.1621 6.5499ZM6.16211 2.0499L6.83107 1.30661L6.16211 0.70454L5.49314 1.30661L6.16211 2.0499ZM4.16211 10.3499H3.16211V11.3499H4.16211V10.3499ZM5.16211 10.3499V11.3499H6.16211V10.3499H5.16211ZM4.16211 6.84985V5.84985H3.16211V6.84985H4.16211ZM8.16211 6.84985H9.16211V5.84985H8.16211V6.84985ZM8.16211 10.3499V11.3499H9.16211V10.3499H8.16211ZM7.16211 10.3499H6.16211V11.3499H7.16211V10.3499ZM7.16211 7.84985H8.16211V6.84985H7.16211V7.84985ZM5.16211 7.84985V6.84985H4.16211V7.84985H5.16211ZM5.48638 -0.0872518L-0.513615 5.41275L0.837834 6.88706L6.83783 1.38706L5.48638 -0.0872518ZM12.8378 5.41275L6.83783 -0.0872518L5.48638 1.38706L11.4864 6.88706L12.8378 5.41275ZM13.1621 12.3499V6.1499H11.1621V12.3499H13.1621ZM0.162109 13.3499H12.1621V11.3499H0.162109V13.3499ZM-0.837891 6.1499V12.3499H1.16211V6.1499H-0.837891ZM2.16211 11.3499V6.5499H0.162109V11.3499H2.16211ZM11.1621 10.3499H1.16211V12.3499H11.1621V10.3499ZM10.1621 6.5499V11.3499H12.1621V6.5499H10.1621ZM5.49314 2.7932L10.4931 7.2932L11.8311 5.80661L6.83107 1.30661L5.49314 2.7932ZM1.83107 7.2932L6.83107 2.7932L5.49314 1.30661L0.493145 5.80661L1.83107 7.2932ZM4.16211 11.3499H5.16211V9.34985H4.16211V11.3499ZM3.16211 6.84985V10.3499H5.16211V6.84985H3.16211ZM8.16211 5.84985H4.16211V7.84985H8.16211V5.84985ZM9.16211 10.3499V6.84985H7.16211V10.3499H9.16211ZM7.16211 11.3499H8.16211V9.34985H7.16211V11.3499ZM6.16211 7.84985V10.3499H8.16211V7.84985H6.16211ZM5.16211 8.84985H7.16211V6.84985H5.16211V8.84985ZM6.16211 10.3499V7.84985H4.16211V10.3499H6.16211Z" fill="black" mask="url(#path-1-inside-1_39009_292)"/>
</svg>
